<svg width="194" height="206" fill="none" xmlns="http://www.w3.org/2000/svg"><path d="M155.667 80.542L80.591 141.62c-6.124 5.265-7.175 14.19-2.384 20.467 3.063 3.715 7.139 5.623 11.629 5.384 3.08.155 6.236-1.234 9.26-3.094l75.077-61.08c6.123-5.264 7.174-14.189 2.383-20.467-5.26-6.146-14.634-7.082-20.889-2.29zm-.819 80.451l-19.441 15.584c-6.123 5.265-7.174 14.19-2.383 20.467 3.062 3.715 7.139 5.622 11.628 5.384 3.081.155 6.237-1.234 9.261-3.094l19.441-15.585c6.123-5.264 7.174-14.189 2.383-20.467-5.26-6.146-14.634-7.082-20.889-2.289zM39.114 130.867a15 15 0 01-15.517-4.806c-5.26-6.146-4.341-15.542 2.383-20.467L147.207 6.746a13.94 13.94 0 0120.42 2.421c5.26 6.147 4.341 15.543-2.384 20.467L44.486 128.351c-1.747.996-3.494 1.991-5.372 2.516z" fill="#02A68F" fill-opacity=".4"/></svg>