<svg width="76" height="77" fill="none" xmlns="http://www.w3.org/2000/svg"><path d="M38 .93C17.016.93 0 17.88 0 38.781c0 20.903 17.016 37.853 38 37.853s38-16.95 38-37.853C76 17.88 58.984.93 38 .93zm19.064 28.962v5.125a17.97 17.97 0 01-10.987-3.719l.037 15.776c-.015 3.553-1.426 6.89-3.98 9.404a13.563 13.563 0 01-7.566 3.77 14 14 0 01-2.043.15 13.622 13.622 0 01-9.609-3.92c-2.767-2.724-4.194-6.417-3.954-10.302a13.214 13.214 0 013.353-7.988c2.622-2.925 6.289-4.548 10.21-4.548.69 0 1.373.051 2.043.15v7.167a6.466 6.466 0 00-2.022-.324c-3.582 0-6.48 2.912-6.427 6.483.034 2.285 1.287 4.282 3.135 5.383a6.404 6.404 0 002.934.896 6.468 6.468 0 002.38-.314c2.56-.842 4.406-3.237 4.406-6.062l.009-10.564V17.168h7.086c.006.7.078 1.382.21 2.043a10.912 10.912 0 004.157 6.581 10.962 10.962 0 006.607 2.2c.002 0 .023 0 .02-.002v1.902z" fill="#02A68F"/></svg>