<svg width="70" height="70" fill="none" xmlns="http://www.w3.org/2000/svg"><path d="M30.64 41.44l11.386-6.533-11.385-6.531v13.063z" fill="#02A68F"/><path d="M35 .043C15.673.043 0 15.655 0 34.907 0 54.16 15.673 69.773 35 69.773c19.327 0 35-15.612 35-34.865S54.327.044 35 .044zm21.87 34.9s0 7.07-.9 10.48a5.47 5.47 0 01-3.856 3.84c-3.423.898-17.114.898-17.114.898s-13.655 0-17.114-.933a5.47 5.47 0 01-3.855-3.84c-.901-3.374-.901-10.48-.901-10.48s0-7.07.9-10.48c.505-1.867 2.018-3.374 3.856-3.876C21.31 19.654 35 19.654 35 19.654s13.691 0 17.114.933a5.47 5.47 0 013.855 3.84c.937 3.41.9 10.516.9 10.516z" fill="#02A68F"/></svg>