<svg width="243" height="209" fill="none" xmlns="http://www.w3.org/2000/svg"><path d="M104.191 141.687v53.339" stroke="#022334" stroke-width="4" stroke-miterlimit="10" stroke-linecap="round" stroke-linejoin="round"/><path d="M113.152 199.965c-5.433 0-9.878-2.963-9.878-6.632 0-3.669 4.445-6.632 9.878-6.632 5.432 0 9.877 2.963 9.877 6.632.071 3.669-4.374 6.632-9.877 6.632z" fill="#ADADAD" stroke="#022334" stroke-width="4" stroke-miterlimit="10" stroke-linecap="round" stroke-linejoin="round"/><path d="M94.243 141.687v53.339" stroke="#022334" stroke-width="4" stroke-miterlimit="10" stroke-linecap="round" stroke-linejoin="round"/><path d="M85.212 199.965c5.503 0 9.877-2.963 9.877-6.632 0-3.669-4.445-6.632-9.877-6.632-5.504 0-9.878 2.963-9.878 6.632 0 3.669 4.445 6.632 9.878 6.632z" fill="#ADADAD" stroke="#022334" stroke-width="4" stroke-miterlimit="10" stroke-linecap="round" stroke-linejoin="round"/><path d="M25.24 67.745c1.34 22.366 15.664 39.723 31.962 38.735" stroke="#022334" stroke-width="4" stroke-miterlimit="10" stroke-linecap="round" stroke-linejoin="round"/><path d="M17.55 60.055c-.353-5.433 2.398-10.09 6.067-10.301 3.67-.212 6.915 4.021 7.197 9.525.353 5.432-2.399 10.089-6.068 10.3-3.669.142-6.914-4.092-7.197-9.524z" fill="#ADADAD" stroke="#022334" stroke-width="4" stroke-miterlimit="10" stroke-linecap="round" stroke-linejoin="round"/><path d="M174.111 58.785c1.341 22.365-10.795 41.345-27.093 42.262" stroke="#022334" stroke-width="4" stroke-miterlimit="10" stroke-linecap="round" stroke-linejoin="round"/><path d="M180.885 50.247c-.353-5.432-3.598-9.736-7.197-9.454-3.669.212-6.35 4.798-6.068 10.301.353 5.433 3.599 9.737 7.197 9.454 3.669-.211 6.421-4.868 6.068-10.3z" fill="#ADADAD" stroke="#022334" stroke-width="4" stroke-miterlimit="10" stroke-linecap="round" stroke-linejoin="round"/><path d="M55.579 149.024a12.616 12.616 0 01-12.63-12.629V18.427c0-6.985 5.645-12.63 12.63-12.63h87.206a12.616 12.616 0 0112.629 12.63v117.968a12.616 12.616 0 01-12.629 12.629H55.579z" fill="#EDEDED"/><path d="M142.785 7.28a11.201 11.201 0 0111.218 11.218v117.968c0 6.208-5.01 11.218-11.218 11.218H55.578a11.202 11.202 0 01-11.218-11.218V18.427c0-6.209 5.01-11.218 11.218-11.218h87.207v.07zm0-2.823H55.578c-7.76 0-14.04 6.28-14.04 14.04v117.969c0 7.761 6.28 14.04 14.04 14.04h87.207c7.761 0 14.04-6.279 14.04-14.04V18.427c0-7.69-6.279-13.97-14.04-13.97z" fill="#022334"/><path d="M142.785 7.28h-23.283c14.393 12.135 23.636 30.267 23.636 50.164 0 35.842-29.916 65.828-65.828 65.828-11.924 0-23.283-3.316-33.02-9.102v22.225c0 6.209 5.01 11.218 11.218 11.218h87.206a11.202 11.202 0 0011.219-11.218V18.427c.07-6.138-4.939-11.148-11.148-11.148z" fill="#CACACA"/><path d="M82.108 96.602a9.004 9.004 0 01-9.032 9.031 9.004 9.004 0 01-9.03-9.03 9.003 9.003 0 019.03-9.032c5.01 0 9.032 4.092 9.032 9.031z" fill="#022334"/><path d="M74.558 93.921c0 2.328-1.905 4.233-4.304 4.233a4.246 4.246 0 01-4.233-4.233 4.246 4.246 0 014.233-4.233c2.4 0 4.304 1.905 4.304 4.233zm1.976 4.727a1.49 1.49 0 01-1.482 1.482c-.846 0-1.481-.635-1.481-1.482 0-.846.635-1.481 1.481-1.481a1.49 1.49 0 011.482 1.481z" fill="#fff"/><path d="M134.388 96.602a9.003 9.003 0 01-9.031 9.031 9.004 9.004 0 01-9.031-9.03 9.004 9.004 0 019.031-9.032c4.939 0 9.031 4.092 9.031 9.031z" fill="#022334"/><path d="M126.839 93.921c0 2.328-1.905 4.233-4.304 4.233a4.246 4.246 0 01-4.233-4.233 4.246 4.246 0 014.233-4.233c2.328 0 4.304 1.905 4.304 4.233zm1.905 4.727a1.49 1.49 0 01-1.482 1.482c-.847 0-1.482-.635-1.482-1.482 0-.846.635-1.481 1.482-1.481s1.482.635 1.482 1.481z" fill="#fff"/><path d="M119.501 127.152s-7.831-9.101-22.295-9.101c-12.7 0-20.743 9.101-20.743 9.101" stroke="#022334" stroke-width="4" stroke-miterlimit="10" stroke-linecap="round" stroke-linejoin="round"/><path d="M172.983 7.28v19.402h2.61V7.28h.706l.494-6.28h-5.292l.776 6.28h.706z" fill="#ADADAD" stroke="#022334" stroke-width="1.046" stroke-miterlimit="10" stroke-linecap="round" stroke-linejoin="round"/><path d="M172.983 52.505a4.245 4.245 0 01-4.233-4.233V30.35a4.245 4.245 0 014.233-4.233h2.61c2.329 0 4.304 1.905 4.304 4.233v17.92c0 2.33-1.905 4.234-4.304 4.234h-2.61z" fill="#FFE519"/><path d="M175.593 26.4a3.87 3.87 0 013.881 3.88v17.921a3.87 3.87 0 01-3.881 3.88h-2.61c-2.117 0-3.881-1.763-3.881-3.88v-17.92a3.87 3.87 0 013.881-3.881h2.61zm0-.776h-2.61a4.652 4.652 0 00-4.657 4.656v17.921a4.652 4.652 0 004.657 4.657h2.61a4.652 4.652 0 004.657-4.657v-17.92c-.071-2.54-2.117-4.657-4.657-4.657z" fill="#022334"/><path d="M172.983 52.152h2.61c.565 0 1.129-.14 1.623-.352-3.88-1.411-6.702-5.15-6.702-9.525 0-5.15 4.021-9.455 9.031-10.02V30.28a3.87 3.87 0 00-3.881-3.88h-2.611c-2.116 0-3.88 1.764-3.88 3.88v17.921a3.826 3.826 0 003.81 3.951z" fill="#D0A51D"/><path d="M176.863 49.683V29.01m-2.611 21.026v-21.59m-2.54 21.237V29.01" stroke="#022334" stroke-width="1.046" stroke-miterlimit="10" stroke-linecap="round" stroke-linejoin="round"/><path d="M15.08 65.276h-.14c-.212-.07-.354-.141-.424-.282l-4.233-6.21c-.212-.352-.141-.775.211-.987L32.72 42.839c.141-.07.282-.14.423-.14h.142c.211.07.352.14.423.281l4.233 6.21c.212.352.141.775-.212.987L15.504 65.135c-.141.14-.282.14-.424.14z" fill="#ADADAD"/><path d="M33.072 43.404l4.233 6.208L15.08 64.57l-4.233-6.209 22.225-14.957zm0-1.411c-.282 0-.565.07-.776.211L10.07 57.162c-.635.423-.847 1.34-.353 1.975l4.233 6.21c.212.282.565.493.918.564h.282c.282 0 .564-.07.776-.212L38.08 50.812c.635-.423.847-1.34.353-1.976L34.2 42.627a1.569 1.569 0 00-.917-.564c-.071-.07-.142-.07-.212-.07z" fill="#022334"/><path d="M35.47 46.931a11.62 11.62 0 00-8.678 1.764c-3.81 2.54-5.574 7.056-5.01 11.36L15.08 64.57l-4.233-6.209 22.225-14.957 2.398 3.527z" fill="#6C7074"/><path d="M38.716 52.646c-2.822 0-5.503-1.41-7.055-3.74a8.468 8.468 0 01-1.27-6.349 8.282 8.282 0 013.598-5.433c1.411-.917 3.034-1.481 4.727-1.481 1.482 0 2.893.352 4.163 1.058.212.141.353.353.353.564 0 .212-.141.494-.282.635l-5.998 4.022c-.211.141-.352.353-.423.635-.07.282 0 .494.141.706l2.046 3.104c.212.282.494.423.776.423.212 0 .353-.07.565-.14l5.997-4.023c.141-.07.282-.14.423-.14.07 0 .212 0 .283.07.211.07.352.282.423.564.423 3.175-.988 6.28-3.67 8.114-1.48.918-3.103 1.411-4.797 1.411z" fill="#ADADAD"/><path d="M38.716 36.348c1.34 0 2.61.353 3.81.988l-5.997 4.022a1.62 1.62 0 00-.423 2.328l2.046 3.104c.353.494.847.706 1.411.706.353 0 .635-.07.917-.282l5.997-4.022c.353 2.822-.846 5.715-3.386 7.408a7.606 7.606 0 01-4.375 1.34c-2.469 0-4.938-1.199-6.49-3.456-2.4-3.599-1.482-8.397 2.116-10.795a7.605 7.605 0 014.374-1.34zm0-1.411c-1.834 0-3.598.564-5.15 1.552-2.046 1.34-3.387 3.457-3.88 5.856a8.933 8.933 0 001.41 6.915c1.694 2.54 4.586 4.092 7.62 4.092 1.835 0 3.599-.565 5.15-1.552 2.894-1.976 4.446-5.292 4.023-8.75-.071-.493-.353-.916-.847-1.128-.212-.07-.353-.141-.565-.141-.282 0-.564.07-.776.212l-5.997 4.021c-.07 0-.07.07-.14.07-.072 0-.142 0-.213-.14l-2.046-3.105c-.07-.07-.07-.14-.07-.212 0-.07 0-.14.14-.14l5.998-4.022c.423-.283.635-.706.635-1.2s-.282-.917-.706-1.2c-1.481-.705-3.033-1.128-4.586-1.128z" fill="#022334"/><path d="M38.575 36.348c-4.233 3.81-5.22 10.442-1.975 15.31-1.694-.493-3.316-1.552-4.375-3.174-2.399-3.599-1.481-8.396 2.117-10.795 1.27-.917 2.752-1.34 4.233-1.34z" fill="#6C7074"/><path d="M9.647 72.19a8.493 8.493 0 01-4.163-1.058c-.211-.141-.352-.353-.352-.565 0-.211.14-.494.282-.635l5.997-4.021c.212-.142.353-.353.423-.635.071-.283 0-.494-.14-.706l-2.047-3.104c-.211-.282-.494-.424-.776-.424-.212 0-.353.07-.564.141l-5.998 4.022c-.14.07-.282.141-.423.141-.07 0-.212 0-.282-.07-.212-.07-.353-.283-.423-.565-.424-3.175.987-6.28 3.668-8.114 1.412-.917 3.034-1.481 4.728-1.481 2.822 0 5.503 1.41 7.055 3.74 2.61 3.88 1.552 9.171-2.328 11.782-1.34 1.058-3.034 1.552-4.657 1.552z" fill="#ADADAD"/><path d="M9.577 55.962c2.47 0 4.939 1.2 6.491 3.458 2.399 3.598 1.482 8.396-2.117 10.794a7.606 7.606 0 01-4.374 1.341c-1.34 0-2.61-.353-3.81-.988l5.997-4.021a1.62 1.62 0 00.424-2.329l-2.047-3.104c-.352-.494-.846-.706-1.41-.706-.354 0-.636.07-.918.283l-5.997 4.02a7.713 7.713 0 013.387-7.408c1.41-.917 2.892-1.34 4.374-1.34zm0-1.41c-1.835 0-3.598.564-5.15 1.551C1.533 58.08-.02 61.395.404 64.853c.07.493.353.916.846 1.128.212.07.353.141.565.141.282 0 .564-.07.776-.211l5.997-4.022c.07 0 .07-.07.141-.07.07 0 .141 0 .212.14l2.046 3.105c.07.07.07.141.07.212 0 .07 0 .14-.14.14L4.92 69.439a1.386 1.386 0 00-.635 1.2c0 .494.283.917.706 1.2 1.34.775 2.893 1.128 4.515 1.128 1.835 0 3.599-.564 5.15-1.552 4.234-2.822 5.292-8.537 2.47-12.77-1.623-2.611-4.445-4.093-7.55-4.093z" fill="#022334"/><path d="M10 71.485c-1.41.07-2.892-.283-4.162-.988l2.822-1.905A9.752 9.752 0 0010 71.485zm2.188-15.099c-1.27 1.129-2.329 2.54-2.964 4.021-.423-.14-.917-.07-1.34.212l-5.997 4.022c-.353-2.823.846-5.715 3.386-7.409 2.117-1.41 4.657-1.622 6.915-.846z" fill="#6C7074"/><path d="M30.46 51.094l-11.076 7.408m9.806-9.312l-11.076 7.407" stroke="#022334" stroke-width="2" stroke-miterlimit="10" stroke-linecap="round" stroke-linejoin="round"/><path d="M126.275 194.956c-.494 0-.988-.282-1.2-.706a1.282 1.282 0 010-1.411l47.978-83.184c.282-.424.705-.706 1.199-.706.494 0 .988.282 1.2.706l23.988 41.557 23.989 41.557c.282.423.282.987 0 1.411-.282.423-.705.705-1.199.705h-95.955v.071z" fill="#02A68F"/><path d="M174.252 110.36l23.989 41.557 23.989 41.557h-95.955l23.989-41.557 23.988-41.557zm0-2.822c-.987 0-1.975.565-2.469 1.411l-23.989 41.557-23.989 41.557a2.877 2.877 0 000 2.822 2.846 2.846 0 002.47 1.411h95.955c.988 0 1.975-.564 2.469-1.411a2.872 2.872 0 000-2.822l-23.989-41.557-23.988-41.557a2.847 2.847 0 00-2.47-1.411z" fill="#022334"/><path d="M109.271 206.88a1.415 1.415 0 01-1.411-1.411v-18.768c0-.776.635-1.411 1.411-1.411h130.033c.776 0 1.411.635 1.411 1.411v18.768c0 .776-.635 1.411-1.411 1.411H109.271z" fill="#02A68F"/><path d="M239.304 186.701v18.767H109.271v-18.767h130.033zm0-2.822H109.271a2.83 2.83 0 00-2.822 2.822v18.767a2.83 2.83 0 002.822 2.823h130.033a2.83 2.83 0 002.822-2.823v-18.767a2.83 2.83 0 00-2.822-2.822z" fill="#022334"/><path d="M126.557 194.532c-.494 0-.988-.282-1.2-.705a1.282 1.282 0 010-1.411l11.924-20.673c.282-.423.706-.705 1.199-.705h71.614c.494 0 .988.282 1.199.705l11.924 20.673c.282.423.282.988 0 1.411-.282.423-.706.705-1.199.705h-95.461z" fill="#F3F4F9"/><path d="M210.094 172.449l11.924 20.672h-95.461l11.923-20.672h71.614zm0-2.823H138.48c-.987 0-1.975.565-2.469 1.412l-11.924 20.672a2.872 2.872 0 000 2.822 2.845 2.845 0 002.47 1.411h95.531c.988 0 1.976-.564 2.47-1.411a2.877 2.877 0 000-2.822l-11.924-20.672a2.981 2.981 0 00-2.54-1.412z" fill="#022334"/><path d="M127.756 190.934l-1.27 2.187h95.532l-2.187-3.739-9.737-16.933h-34.149c-6.067 4.092-13.334 6.491-21.025 6.491-6.35 0-12.347-1.623-17.639-4.375l-9.525 16.369z" fill="#C6C6C6"/><path d="M150.405 153.187c-.494 0-.988-.282-1.2-.705a1.282 1.282 0 010-1.411l11.924-20.673c.282-.423.706-.706 1.2-.706h23.918c.494 0 .988.283 1.199.706l11.924 20.673c.282.423.282.987 0 1.411-.282.423-.706.705-1.199.705h-47.766z" fill="#F3F4F9"/><path d="M186.247 131.033l11.924 20.673h-47.766l11.924-20.673h23.918zm0-2.822h-23.918c-.988 0-1.976.564-2.47 1.411l-11.924 20.672a2.874 2.874 0 000 2.823 2.847 2.847 0 002.47 1.411h47.766c.987 0 1.975-.565 2.469-1.411a2.874 2.874 0 000-2.823l-11.924-20.672c-.564-.847-1.482-1.411-2.469-1.411z" fill="#022334"/><path d="M198.171 151.776l-2.822-4.868-2.329-4.022a40.496 40.496 0 01-1.623 8.819h6.774v.071z" fill="#C6C6C6"/></svg>