<svg width="26" height="26" fill="none" xmlns="http://www.w3.org/2000/svg"><g clip-path="url(#clip0)"><path d="M24.565 0H1.434C.642 0 0 .643 0 1.435v23.131C0 25.358.643 26 1.435 26h23.13c.792 0 1.435-.642 1.435-1.435V1.434C26 .642 25.357 0 24.565 0z" fill="#646E84"/><path d="M17.951 26V15.945h3.39l.508-3.935H17.95V9.503c0-1.136.316-1.911 1.946-1.911h2.066v-3.51c-.36-.048-1.593-.155-3.028-.155-2.996 0-5.046 1.828-5.046 5.187v2.896h-3.377v3.935h3.377V26h4.062z" fill="#fff"/></g><defs><clipPath id="clip0"><path fill="#fff" d="M0 0h26v26H0z"/></clipPath></defs></svg>