<svg width="41" height="36" fill="none" xmlns="http://www.w3.org/2000/svg"><path d="M13.74 28.311H0V.053h17.146c1.215 0 2.39.08 3.485.253 1.135.173 2.31.49 3.485.947 1.195.474 2.25 1.073 3.126 1.8.896.742 1.613 1.736 2.171 2.936.538 1.184.817 2.557.817 4.073 0 1.342-.28 2.589-.837 3.662-.558 1.105-1.294 2.005-2.21 2.7-.877.663-1.932 1.231-3.107 1.673a17.99 17.99 0 01-3.465.916c-1.115.174-2.29.252-3.465.252h-3.405v9.046zM2.012 26.717h9.718V17.67h5.417c1.055 0 2.091-.079 3.107-.22a14.15 14.15 0 002.967-.79c.976-.363 1.852-.837 2.569-1.39a6.06 6.06 0 001.732-2.13c.458-.9.677-1.927.677-3.08 0-1.325-.239-2.525-.697-3.535-.458-.995-1.035-1.8-1.732-2.384-.717-.6-1.573-1.09-2.55-1.468a13.844 13.844 0 00-2.966-.805 22.033 22.033 0 00-3.127-.221H1.991v25.069h.02z" fill="#323C3F"/><path d="M40.406 35.683h-13.94l-5.875-9.85v9.85H8.105v-28.4h16.927c1.215 0 2.39.08 3.505.237 1.135.158 2.27.458 3.425.916 1.155.442 2.17 1.01 3.007 1.689.856.679 1.533 1.594 2.071 2.73.538 1.137.797 2.432.797 3.9 0 3.489-1.932 5.889-5.815 7.199l8.384 11.73zM20.83 15.05h-.259v4.357h.26c.079 0 .278 0 .636.016h.717c.12 0 .339-.016.657-.047.319-.032.538-.063.677-.11a4.49 4.49 0 00.558-.238c.22-.094.398-.22.498-.363a2.226 2.226 0 00.398-1.31c0-.442-.08-.82-.259-1.12a1.946 1.946 0 00-.577-.68c-.22-.157-.518-.268-.936-.347a7.76 7.76 0 00-.996-.126c-.259-.016-.637-.016-1.155-.016-.1-.016-.16-.016-.219-.016z" fill="#02A68F"/><path d="M13.74 19.265h3.406c1.175 0 2.33-.079 3.425-.252v-1.626c-.12.015-.219.031-.338.047-.996.142-2.052.221-3.107.221H11.71v9.046H8.066v1.61h5.656v-9.046h.02z" fill="#323C3F"/></svg>