<svg width="26" height="26" fill="none" xmlns="http://www.w3.org/2000/svg"><path d="M18.255 0H7.745C3.476 0 0 3.475 0 7.746v10.508C0 22.526 3.475 26 7.746 26h10.508C22.526 26 26 22.525 26 18.255V7.745C26 3.476 22.525 0 18.255 0zm5.13 18.255a5.13 5.13 0 01-5.13 5.13H7.745a5.13 5.13 0 01-5.13-5.13V7.745a5.13 5.13 0 015.13-5.13h10.51a5.13 5.13 0 015.13 5.13v10.51z" fill="#646E84"/><path d="M12.998 6.275A6.732 6.732 0 006.273 13a6.732 6.732 0 006.725 6.724A6.732 6.732 0 0019.723 13a6.732 6.732 0 00-6.725-6.725zm0 10.834a4.109 4.109 0 110-8.218 4.109 4.109 0 010 8.218z" fill="#646E84"/><path d="M19.736 7.938a1.611 1.611 0 100-3.223 1.611 1.611 0 000 3.223z" fill="url(#paint0_linear)"/><defs><linearGradient id="paint0_linear" x1="19.736" y1="25.925" x2="19.736" y2=".202" gradientUnits="userSpaceOnUse"><stop stop-color="#646E84"/><stop offset=".3" stop-color="#646E84"/><stop offset=".6" stop-color="#646E84"/><stop offset="1" stop-color="#646E84"/></linearGradient></defs></svg>