<svg width="191" height="37" fill="none" xmlns="http://www.w3.org/2000/svg"><path d="M81.35 35.684V23.718c0-2.495-.497-4.247-1.473-5.257-.996-1.01-2.55-1.516-4.7-1.516-1.971 0-3.684.679-5.118 2.02-1.434 1.343-2.15 3.032-2.15 5.068v11.65h-2.25V23.576c0-4.42-2.132-6.646-6.373-6.646-2.051 0-3.744.68-5.098 2.037-1.354 1.357-2.032 3.11-2.032 5.257v11.46h-2.25v-19.89h2.25v3.299h.1c1.752-2.526 4.301-3.789 7.667-3.789 1.832 0 3.385.41 4.7 1.247 1.314.837 2.17 1.926 2.628 3.284.777-1.437 1.912-2.557 3.366-3.347a9.845 9.845 0 014.76-1.2c5.496 0 8.224 2.7 8.224 8.083v12.298h-2.25v.016zm24.774 0v-3.978h-.1c-.796 1.357-1.971 2.447-3.484 3.252-1.534.805-3.227 1.215-5.079 1.215-2.39 0-4.261-.537-5.655-1.594-1.394-1.058-2.091-2.4-2.091-4.026 0-3.473 2.907-5.573 8.702-6.299l7.707-.915c0-4.278-2.031-6.41-6.074-6.41-2.768 0-5.436.884-8.065 2.637v-2.147c.936-.584 2.19-1.074 3.784-1.5 1.593-.41 3.086-.616 4.5-.616 2.589 0 4.581.632 5.994 1.91 1.414 1.264 2.111 3.11 2.111 5.542v12.929h-2.25zm-6.91-9.914c-2.629.3-4.48.773-5.536 1.452-1.056.663-1.593 1.752-1.593 3.252 0 1.184.498 2.147 1.473 2.92.996.759 2.37 1.153 4.122 1.153 2.41 0 4.421-.71 6.034-2.131 1.594-1.42 2.41-3.252 2.41-5.478v-1.942l-6.91.774zm28.537-8.115c-.757-.426-1.633-.647-2.648-.647-1.972 0-3.625.805-4.979 2.431-1.334 1.626-2.011 3.915-2.011 6.9v9.345h-2.211V15.793h2.211v4.404h.099c.578-1.515 1.474-2.7 2.729-3.536 1.234-.837 2.668-1.263 4.301-1.263.936 0 1.772.11 2.489.347v1.91h.02zm19.078 18.029l-12.008-9.82h-.1v9.82h-2.25V6.242h2.25v18.975h.1l11.39-9.424h2.908l-11.909 9.63 12.865 10.245h-3.246v.016zm8.443-9.867c0 2.731.797 4.862 2.39 6.41 1.593 1.546 3.783 2.304 6.552 2.304 2.807 0 5.556-.82 8.224-2.463v1.91c-2.589 1.469-5.496 2.195-8.702 2.195-3.227 0-5.855-.916-7.847-2.763-1.991-1.83-2.987-4.436-2.987-7.782 0-2.905 1.036-5.336 3.127-7.326 2.091-1.989 4.779-2.983 8.125-2.983 3.126 0 5.516.868 7.169 2.605 1.673 1.736 2.489 4.104 2.489 7.104v.789h-18.54zm16.23-1.642c-.1-2.289-.797-4.073-2.091-5.336s-3.067-1.91-5.337-1.91c-2.35 0-4.301.632-5.835 1.879-1.533 1.247-2.489 3.03-2.847 5.367h16.11zM189.981 35.4c-1.174.442-2.27.663-3.305.663-3.704 0-5.556-1.769-5.556-5.289V17.42h-4.501v-1.626h4.501V10.63c.358-.11.737-.205 1.135-.315.398-.095.776-.19 1.135-.284v5.762h6.611v1.626h-6.611v13.118c0 1.374.279 2.368.816 2.984.538.616 1.474.916 2.788.916.936 0 1.932-.237 3.007-.727v1.69h-.02zM13.74 28.311H0V.053h17.146c1.215 0 2.39.08 3.485.253 1.135.173 2.31.49 3.485.947 1.195.474 2.25 1.073 3.126 1.8.896.742 1.613 1.736 2.171 2.936.538 1.184.817 2.557.817 4.073 0 1.342-.28 2.589-.837 3.662-.558 1.105-1.294 2.005-2.21 2.7-.877.663-1.932 1.231-3.107 1.673a17.99 17.99 0 01-3.465.916c-1.115.174-2.29.252-3.465.252h-3.405v9.046zM2.012 26.717h9.718V17.67h5.417c1.055 0 2.091-.079 3.107-.22a14.15 14.15 0 002.967-.79c.976-.363 1.852-.837 2.569-1.39a6.06 6.06 0 001.732-2.13c.458-.9.677-1.927.677-3.08 0-1.325-.239-2.525-.697-3.535-.458-.995-1.035-1.8-1.732-2.384-.717-.6-1.573-1.09-2.55-1.468a13.844 13.844 0 00-2.966-.805 22.033 22.033 0 00-3.127-.221H1.991v25.069h.02z" fill="#323C3F"/><path d="M40.406 35.683h-13.94l-5.874-9.85v9.85H8.105v-28.4h16.927c1.215 0 2.39.08 3.505.237 1.135.158 2.27.458 3.425.916 1.155.442 2.171 1.01 3.007 1.689.857.679 1.534 1.594 2.072 2.73.537 1.137.796 2.432.796 3.9 0 3.489-1.931 5.889-5.815 7.199l8.384 11.73zM20.831 15.05h-.26v4.357h.26c.08 0 .278 0 .637.016h.717a8.2 8.2 0 00.657-.047c.319-.032.538-.063.677-.11a4.46 4.46 0 00.558-.238c.219-.094.398-.22.497-.363a2.229 2.229 0 00.398-1.31c0-.442-.079-.82-.258-1.12-.16-.3-.359-.522-.578-.68-.219-.157-.517-.268-.936-.347a7.76 7.76 0 00-.995-.126c-.26-.016-.638-.016-1.155-.016-.1-.016-.16-.016-.22-.016z" fill="#02A68F"/><path d="M13.742 19.265h3.405c1.175 0 2.33-.079 3.426-.252v-1.626c-.12.015-.22.031-.34.047-.995.142-2.05.221-3.106.221h-5.416v9.046H8.066v1.61h5.656v-9.046h.02z" fill="#323C3F"/></svg>