<svg width="35" height="32" fill="none" xmlns="http://www.w3.org/2000/svg"><path d="M21.38 26.1c2.786-.525 4.744-2.543 5.874-6.055.565-1.736.848-3.451.848-5.147v-.544c-.04-.122-.081-.424-.122-.909h-6.6V.246h12.897v12.17c0 5.974-1.19 10.575-3.572 13.805-2.381 3.229-5.49 5.086-9.324 5.57V26.1zm-20.403 0c2.22-.364 3.915-1.615 5.085-3.754 1.13-2.14 1.696-4.602 1.696-7.387v-.727a7.074 7.074 0 00-.182-.787h-6.6V.246h12.958v12.17c0 4.803-1.01 9.082-3.028 12.836-2.018 3.794-5.328 5.974-9.93 6.539V26.1z" fill="#02A68F"/></svg>