<svg width="32" height="32" fill="none" xmlns="http://www.w3.org/2000/svg"><g clip-path="url(#clip0)" fill="#000"><path d="M10.375 20.688h16.938c.42 0 .787-.278.9-.68l3.75-13.126a.937.937 0 00-.9-1.194H8.21l-.67-3.016a.937.937 0 00-.916-.735H.937a.937.937 0 100 1.875h4.936l3.385 15.235a2.814 2.814 0 00-1.695 2.578 2.816 2.816 0 002.812 2.813h16.938a.937.937 0 100-1.875H10.375a.939.939 0 010-1.875zm-.937 6.562a2.816 2.816 0 002.812 2.813 2.816 2.816 0 002.813-2.813 2.816 2.816 0 00-2.813-2.812 2.816 2.816 0 00-2.813 2.812zm13.187 0a2.816 2.816 0 002.813 2.813 2.815 2.815 0 002.812-2.813 2.816 2.816 0 00-2.813-2.812 2.816 2.816 0 00-2.812 2.812z"/></g><defs><clipPath id="clip0"><path fill="#fff" d="M0 0h32v32H0z"/></clipPath></defs></svg>