<svg width="18" height="33" fill="none" xmlns="http://www.w3.org/2000/svg"><mask id="path-1-inside-1" fill="#fff"><path d="M.751 0C.337 0 .001.32 0 .716c0 .191.079.374.22.51L16.19 16.5.22 31.774a.696.696 0 000 1.016c.294.28.769.28 1.062 0L17.78 17.007a.696.696 0 000-1.014L1.282.211A.767.767 0 00.752 0z"/></mask><path d="M.751 0C.337 0 .001.32 0 .716c0 .191.079.374.22.51L16.19 16.5.22 31.774a.696.696 0 000 1.016c.294.28.769.28 1.062 0L17.78 17.007a.696.696 0 000-1.014L1.282.211A.767.767 0 00.752 0z" fill="#022334"/><path d="M.751 0v2H.748L.75 0zM0 .716l-2-.004 2 .004zm.22.51L1.601-.223l.002.002L.22 1.225zM16.19 16.5l1.381-1.446 1.511 1.446-1.51 1.445-1.383-1.445zM.22 31.774l-1.382-1.445L.22 31.773zm1.062 1.016L-.1 31.344l1.382 1.446zM17.78 17.007l1.383 1.445-1.383-1.445zm0-1.014l1.383-1.445-1.383 1.445zM1.282.211L-.1 1.656l-.003-.002L1.282.21zM.748 2c.606.001 1.25-.49 1.252-1.28l-4-.008C-1.997-.87-.68-2.003.755-2L.748 2zM2 .72c0-.371-.154-.708-.399-.942L-1.16 2.672A2.702 2.702 0 01-2 .712L2 .72zm-.397-.94l15.969 15.274-2.765 2.89-15.97-15.273L1.604-.22zm15.969 18.165L1.601 33.219l-2.764-2.89 15.969-15.275 2.764 2.89zM1.601 33.219c.53-.507.53-1.367 0-1.875l-2.764 2.89a2.696 2.696 0 010-3.905l2.765 2.89zm0-1.875a1.225 1.225 0 00-1.702 0l2.765 2.89a2.775 2.775 0 01-3.827 0l2.765-2.89zm-1.702 0l16.498-15.782 2.765 2.89L2.665 34.236-.1 31.345zm16.498-15.782a1.304 1.304 0 000 1.876l2.765-2.89a2.696 2.696 0 010 3.905l-2.765-2.89zm0 1.876L-.1 1.656l2.765-2.89 16.498 15.782-2.765 2.89zM-.102 1.654c.24.23.549.346.853.346v-4c.703 0 1.394.267 1.916.768l-2.77 2.886z" fill="#000" mask="url(#path-1-inside-1)"/></svg>