<svg width="19" height="18" fill="none" xmlns="http://www.w3.org/2000/svg"><path d="M13.112 0H5.837A5.368 5.368 0 00.475 5.362v7.276A5.368 5.368 0 005.837 18h7.275a5.368 5.368 0 005.363-5.362V5.362A5.368 5.368 0 0013.112 0zm3.552 12.638a3.552 3.552 0 01-3.552 3.551H5.837a3.552 3.552 0 01-3.552-3.551V5.362a3.551 3.551 0 013.552-3.551h7.275a3.552 3.552 0 013.552 3.551v7.276z" fill="#646E84"/><path d="M9.472 4.345A4.66 4.66 0 004.816 9a4.66 4.66 0 004.656 4.656A4.66 4.66 0 0014.127 9a4.66 4.66 0 00-4.655-4.655zm0 7.5a2.845 2.845 0 110-5.69 2.845 2.845 0 010 5.69z" fill="#646E84"/><path d="M14.137 5.495a1.116 1.116 0 100-2.23 1.116 1.116 0 000 2.23z"/><defs><linearGradient id="paint0_linear" x1="14.137" y1="17.948" x2="14.137" y2=".14" gradientUnits="userSpaceOnUse"><stop stop-color="#646E84"/><stop offset=".3" stop-color="#646E84"/><stop offset=".6" stop-color="#646E84"/><stop offset="1" stop-color="#646E84"/></linearGradient></defs></svg>