<svg width="351" height="236" fill="none" xmlns="http://www.w3.org/2000/svg"><path d="M325.187 2.927L63.542.572C50.99.459 40.868 10.499 40.981 22.954l.437 48.208-35.679-.321C2.924 70.815.663 73.058.69 75.85c.024 2.794 2.327 5.078 5.142 5.103l61.164.55c2.814.026 5.076-2.217 5.05-5.01-.025-2.794-2.327-5.078-5.142-5.103l-15.291-.138-.437-48.207a12.178 12.178 0 01.81-4.47l99.868 99.087-98.086 97.305a12.426 12.426 0 01-.892-4.485l-.3-33.038c-.025-2.793-2.328-5.077-5.143-5.102-2.814-.025-5.076 2.217-5.05 5.011l.3 33.037c.112 12.455 10.417 22.679 22.97 22.792l261.645 2.355c12.553.113 22.674-9.927 22.561-22.382l-1.7-187.437c-.113-12.455-10.418-22.68-22.971-22.792zm-86.201 115.52l98.086-97.305c.555 1.397.878 2.906.892 4.485l1.701 187.437a12.204 12.204 0 01-.811 4.47l-99.868-99.087zM325.278 13.04c1.592.015 3.113.335 4.521.886L217.112 125.715c-11.816 11.724-31.218 11.549-43.249-.389L59.129 11.49a12.45 12.45 0 014.505-.805l261.644 2.355zM65.561 223.07a12.7 12.7 0 01-4.52-.886l98.085-97.305 7.594 7.535a41.562 41.562 0 0028.94 12.089c10.442.094 20.848-3.756 28.725-11.57l7.459-7.399 99.867 99.086a12.426 12.426 0 01-4.505.804L65.561 223.07z" fill="#fff" fill-opacity=".5"/><path d="M46.699 91.435c-2.815-.026-5.077 2.217-5.052 5.01l.138 15.171-35.679-.321c-2.815-.025-5.076 2.217-5.051 5.011.025 2.793 2.328 5.077 5.143 5.102l81.551.734c2.815.026 5.077-2.217 5.052-5.011-.026-2.793-2.328-5.077-5.143-5.102l-35.68-.321-.137-15.17c-.025-2.794-2.328-5.078-5.142-5.103zm21.029 70.978c2.815.025 5.077-2.218 5.052-5.011-.026-2.793-2.328-5.077-5.143-5.103l-15.291-.137-.138-15.171c-.025-2.793-2.328-5.077-5.143-5.102-2.814-.025-5.076 2.217-5.05 5.011l.137 15.17-35.679-.321c-2.815-.025-5.076 2.218-5.051 5.011.025 2.793 2.328 5.077 5.143 5.103l61.163.55z" fill="#fff" fill-opacity=".5"/></svg>