<svg width="43" height="43" fill="none" xmlns="http://www.w3.org/2000/svg"><g clip-path="url(#clip0)" fill="#02A68F"><path d="M36.306 2.5H7C2.217 2.5 0 4.344 0 9v17.163C0 30.82 1.717 32 6.5 32l19.575.496 7.36 7.364a1.26 1.26 0 002.15-.891L36 32c5 0 7-1.5 7-6V9.202C43 4.546 41.089 2.5 36.306 2.5zm-7.697 16.446l-6.248 6.143a1.257 1.257 0 01-1.77-.003l-6.203-6.143a4.625 4.625 0 01-1.395-3.32c0-1.256.496-2.435 1.398-3.322 1.846-1.815 4.85-1.815 6.697 0l.412.405.412-.405c1.846-1.815 4.85-1.815 6.697 0a4.628 4.628 0 011.398 3.322 4.628 4.628 0 01-1.398 3.323z"/><path d="M23.678 14.201l-1.295 1.274a1.26 1.26 0 01-1.766 0L19.322 14.2a2.251 2.251 0 00-1.582-.643c-.573 0-1.146.214-1.583.643a2.127 2.127 0 000 3.052l5.324 5.271 5.362-5.271a2.127 2.127 0 000-3.052 2.267 2.267 0 00-3.165 0z"/></g><defs><clipPath id="clip0"><path fill="#fff" d="M0 0h43v43H0z"/></clipPath></defs></svg>