<svg width="54" height="51" fill="none" xmlns="http://www.w3.org/2000/svg"><path d="M46.477 13.441C47 13 49 10.5 45.5 7.5s-5-1-5.735-.398c-.735.603-12.497 11.902-12.497 11.902l6.712 6.34s11.974-11.462 12.497-11.903zm-24.222 14.68c-.543 1.233.767 2.468 2.07 1.954l8.035-3.926-5.953-5.621-4.152 7.593z" fill="#02A68F"/><path d="M4.821 41.69H6.43v7.775c0 .62.39 1.181.991 1.418.593.236 1.288.11 1.752-.333l9.28-8.86H37.18c2.658 0 4.821-2.065 4.821-4.603v-15.87l-5.429 5.134c-.442.423-.944.795-1.523 1.027L25.905 32c-.837.345-1.392.513-2.032.513-.478 0-1.078-.15-1.524-.279l-11.099.25c-.889 0-1.607-.687-1.607-1.535 0-.849.718-1.535 1.607-1.535H20c-.317-1.004-.437-2.064 0-3.063L25 18c.141-.34.464-1.08.905-1.5L32 11H4.821C2.163 11 0 13.065 0 15.604v21.483c0 2.538 2.163 4.603 4.821 4.603z" fill="#02A68F"/></svg>