<svg width="52" height="44" fill="none" xmlns="http://www.w3.org/2000/svg"><path d="M45.581 0H26c-3.545 0-6.419 2.427-6.419 5.431v24.853c0 1.055 1.43 1.671 2.438 1.032l6.12-3.885h17.442C49.126 27.431 52 25.004 52 22V5.431C52 2.431 49.13 0 45.58 0zm-9.79 21.218c-.841 0-1.524-.578-1.524-1.29 0-.71.682-1.288 1.523-1.288.841 0 1.524.577 1.524 1.289 0 .711-.683 1.289-1.524 1.289zm1.523-5.7v.269c0 .712-.682 1.289-1.524 1.289-.84 0-1.523-.577-1.523-1.29v-1.38c0-.712.682-1.29 1.523-1.29 1.41 0 2.556-.97 2.556-2.162S37.2 8.791 35.79 8.791c-1.416 0-2.556.97-2.556 2.162 0 .712-.682 1.29-1.523 1.29-.841 0-1.523-.577-1.523-1.289v-.001c0-2.622 2.508-4.74 5.6-4.74 3.092 0 5.605 2.127 5.605 4.741 0 2.168-1.728 4-4.08 4.563zM16.883 26.804c0 3.365-3.224 6.093-7.201 6.093-3.977 0-7.202-2.728-7.202-6.093 0-3.366 3.225-6.094 7.202-6.094s7.201 2.728 7.201 6.094zm-7.201 6.093C4.335 32.897 0 36.566 0 41.09v1.621c0 .712.682 1.29 1.523 1.29h16.318c.841 0 1.524-.578 1.524-1.29V41.09c0-4.525-4.335-8.193-9.683-8.193z" fill="#02A68F"/></svg>