<svg width="43" height="43" fill="none" xmlns="http://www.w3.org/2000/svg"><g clip-path="url(#clip0)" fill="#02A68F"><path d="M28.507 21.72l14.496 9.165V12.169L28.507 21.72zM0 12.17v18.715l14.496-9.165L0 12.17zm40.311-5.451H2.686c-1.341 0-2.405 1-2.607 2.287L21.5 23.118 42.918 9.006c-.202-1.288-1.266-2.287-2.607-2.287zM26.043 23.344l-3.803 2.504a1.343 1.343 0 01-1.478 0l-3.803-2.507L.087 34.013c.207 1.277 1.266 2.268 2.601 2.268h37.625c1.336 0 2.395-.991 2.602-2.268l-16.872-10.67z"/></g><defs><clipPath id="clip0"><path fill="#fff" d="M0 0h43v43H0z"/></clipPath></defs></svg>