<svg width="74" height="74" fill="none" xmlns="http://www.w3.org/2000/svg"><path d="M27.516 23.528H29a.867.867 0 000-1.735h-1.484a.867.867 0 000 1.735z" fill="#02A68F"/><path d="M54.87 41.275a2.917 2.917 0 00-2.914-2.914h-9.24a.821.821 0 01-.817-.732 7.523 7.523 0 01.433-3.445c.466-1.238.704-2.549.703-3.87v-.75a4.56 4.56 0 00-4.555-4.555.867.867 0 00-.857.735l-.415 2.708a17.734 17.734 0 01-1.971 5.812V19.99a6.217 6.217 0 00-6.21-6.21H7.655a6.217 6.217 0 00-6.21 6.21v46.748a6.217 6.217 0 006.21 6.21h21.371a6.217 6.217 0 006.21-6.21V55.483c.337.165.665.346.986.544 2.11 1.31 4.461 1.418 6.885 1.418h7.71a3.042 3.042 0 002.513-4.762 3.046 3.046 0 00.593-4.857 3.117 3.117 0 00.037-4.44 2.903 2.903 0 00.91-2.11zM29.026 71.213H7.656a4.48 4.48 0 01-4.476-4.475V63.33h30.322v3.407a4.48 4.48 0 01-4.476 4.475zm4.476-7.882H3.18V23.528h21.706a.867.867 0 000-1.735H3.18V19.99a4.48 4.48 0 014.475-4.476h21.371a4.48 4.48 0 014.476 4.476v1.804h-1.805a.867.867 0 000 1.734h1.805v13.218a4.57 4.57 0 01-3.099 1.22h-1.092V35.96a.867.867 0 00-.867-.867H20.61a.867.867 0 00-.867.867V56a.867.867 0 00.867.867h7.832A.867.867 0 0029.31 56v-1.675h.94c1.101 0 2.197.161 3.252.478v8.528zm-5.925-26.504v18.306h-6.099V36.827h6.099zm24.239 11.884a1.32 1.32 0 110 2.642h-4.444a.867.867 0 000 1.734h3.445a1.311 1.311 0 010 2.623h-7.71c-2.164 0-4.249-.089-5.972-1.157a13.051 13.051 0 00-6.885-1.963h-.94V39.7h1.093a6.312 6.312 0 005.092-2.597 19.467 19.467 0 003.429-8.388l.287-1.876a2.826 2.826 0 012.09 2.724v.75a9.24 9.24 0 01-.592 3.26 9.267 9.267 0 00-.535 4.244 2.553 2.553 0 002.542 2.279h9.24a1.18 1.18 0 010 2.359h-1.884a.86.86 0 00-.124.01h-1.214a.867.867 0 100 1.734h3.013a1.389 1.389 0 110 2.778h-3.013a.867.867 0 100 1.734h3.082z" fill="#02A68F"/><path d="M68.22 1.052H41.707a4.339 4.339 0 00-4.333 4.334V19.23a4.339 4.339 0 004.333 4.334h1.41a.333.333 0 01.334.25c.786 4.45 3.704 5.817 4.364 6.073a.879.879 0 001.023-.145.923.923 0 00.268-.467 6.52 6.52 0 00.15-1.06c.22-2.353.68-4.651 3.623-4.651H68.22a4.339 4.339 0 004.333-4.334V5.386a4.339 4.339 0 00-4.333-4.334zm2.6 18.178a2.602 2.602 0 01-2.6 2.6H52.879c-4.54 0-5.126 3.953-5.322 5.94-.827-.608-1.974-1.857-2.398-4.258a2.055 2.055 0 00-2.041-1.683h-1.41a2.602 2.602 0 01-2.6-2.599V5.386a2.601 2.601 0 012.6-2.6H68.22a2.602 2.602 0 012.599 2.6V19.23z" fill="#02A68F"/></svg>