<svg width="76" height="76" fill="none" xmlns="http://www.w3.org/2000/svg"><path d="M18.016 26.902a.89.89 0 00-.891.89v6.984a.89.89 0 101.781 0v-6.984a.89.89 0 00-.89-.89zm3.664 0a.89.89 0 00-.89.89v6.984a.89.89 0 001.78 0v-6.984a.89.89 0 00-.89-.89zm-7.328 0a.89.89 0 00-.891.89v6.984a.891.891 0 001.781 0v-6.984a.89.89 0 00-.89-.89z" fill="#02A68F"/><path d="M26.849 36.237V23.725a2.9 2.9 0 00-1.185-5.55h-2.959v-1.35a1.583 1.583 0 00-1.581-1.582h-6.215a1.583 1.583 0 00-1.582 1.582v1.35H10.37a2.9 2.9 0 00-1.185 5.55v12.512a3.184 3.184 0 003.18 3.18h11.304a3.184 3.184 0 003.18-3.18zm-11.74-19.212h5.815v1.15H15.11v-1.15zm-4.74 2.932h15.295a1.121 1.121 0 010 2.242H10.369a1.121 1.121 0 010-2.242zm.596 16.28V23.98h14.103v12.256a1.401 1.401 0 01-1.4 1.399H12.364a1.4 1.4 0 01-1.399-1.4z" fill="#02A68F"/><path d="M54.004 34.25V22.975a.89.89 0 00-1.267-.807l-17.143 8c-.487.229-.98.447-1.48.657a16.475 16.475 0 10-20.926 12.26v2.344a4.35 4.35 0 004.345 4.345c.106 0 .212.004.318.005v14.477a.89.89 0 00.89.89 7.808 7.808 0 007.8-7.8v-6.601a42.8 42.8 0 019.052 3.036l17.143 8a.89.89 0 001.268-.806V49.7a7.798 7.798 0 000-15.45zM3.32 27.33a14.7 14.7 0 1114.696 14.696A14.712 14.712 0 013.32 27.33zm11.65 18.1v-1.907c3.304.62 6.72.216 9.79-1.159v6.226a44.349 44.349 0 00-7.228-.598 2.567 2.567 0 01-2.563-2.563zm9.79 11.917a6.028 6.028 0 01-5.128 5.952V49.83a42.85 42.85 0 015.128.57v6.948zm1.78-8.425v-7.49a16.509 16.509 0 006.943-8.434 44.731 44.731 0 002.864-1.215l10.176-4.749v29.882l-10.176-4.75a44.621 44.621 0 00-9.806-3.244zm25.682 10.654l-3.919-1.829V26.202l3.92-1.828v35.202zm1.782-11.679V36.052a6.017 6.017 0 010 11.845z" fill="#02A68F"/><path d="M69.013 41.975a11.076 11.076 0 00-6.749-10.207.89.89 0 00-.697 1.639 9.31 9.31 0 010 17.134.89.89 0 10.697 1.64 11.074 11.074 0 006.748-10.206z" fill="#02A68F"/><path d="M64.462 26.85a.89.89 0 10-.698 1.64 14.655 14.655 0 010 26.969.89.89 0 10.698 1.639 16.436 16.436 0 000-30.247z" fill="#02A68F"/></svg>