<svg width="72" height="72" fill="none" xmlns="http://www.w3.org/2000/svg"><path d="M56.873 40.207a20.293 20.293 0 001.154-16.265.844.844 0 00-.791-.563l-5.276-.025 1.229-3.232a3.64 3.64 0 00-2.695-4.676.82.82 0 00-.104-.016l-.02-.002a3.708 3.708 0 00-2.83.573 3.835 3.835 0 00-1.64 2.565l-.743 4.756-1.386-.007V3.656a.844.844 0 00-.844-.844h-9.499a.844.844 0 00-.843.844v19.607l-1.38-.007v-9.835a.844.844 0 00-.081-.363L27.282 5a.844.844 0 00-1.524 0l-3.841 8.058a.843.843 0 00-.083.363v9.791l-2.395-.011h-.005a.845.845 0 00-.776.513 21.82 21.82 0 00-1.709 7.378c-.022.367-.032 3.472-.034 4.283L12.916 45.85a1.782 1.782 0 001.666 2.42h5.385v6.09a5.54 5.54 0 005.703 5.538c.37-.012 4.982-.032 7.865-.042l2.187 8.694a.844.844 0 00.819.638h19.681a.842.842 0 00.816-1.062c-.033-.124-3.296-12.485-2.573-20.25.196-2.113 2.214-7.187 2.408-7.669zm-9.309-21.369a2.155 2.155 0 01.92-1.439 2.033 2.033 0 011.584-.31.842.842 0 00.103.015l.011.001a1.957 1.957 0 011.42 2.443l-1.445 3.797-3.294-.016.701-4.49zm-13.292.069h4.866a.844.844 0 000-1.688h-4.866v-6.316h3.265a.843.843 0 100-1.687h-3.265V4.5h7.81v18.807l-7.81-.037v-4.363zM26.52 7.324l2.734 5.733h-5.468l2.734-5.733zm-2.998 7.421h5.996v8.503l-5.996-.028v-8.475zM55.138 67.5h-17.94l-2.187-8.697a.845.845 0 00-.818-.638h-.003c-.329.001-8.049.03-8.572.046a3.853 3.853 0 01-3.964-3.85v-6.936a.844.844 0 00-.843-.843h-6.229a.095.095 0 01-.089-.13l4.054-10.62a.849.849 0 00.056-.298c.003-1.538.015-4.076.031-4.345A20.169 20.169 0 0120 24.891l2.442.011a.833.833 0 00.464.002l33.718.159a18.613 18.613 0 01-1.266 14.4.869.869 0 00-.034.074c-.094.233-2.31 5.728-2.539 8.182-.633 6.79 1.562 16.557 2.353 19.781z" fill="#02A68F"/><path d="M48.577 8.266a9.89 9.89 0 00-.7 1.058c-.698 1.245-.724 2.746-.071 3.918 1.076 1.928 3.46 2.31 4.784 2.367a4.778 4.778 0 004.095-1.923c1.02-1.363 1.27-3.136.688-4.868-.482-1.58-1.513-2.855-3.064-3.792a10.377 10.377 0 00-3.588-1.294c-1.288-.21-1.668-.058-1.918.295a.867.867 0 00-.053.904c.055.096.118.188.187.275.222.298.636.853.552 1.398-.077.51-.502 1.095-.912 1.662zm1.367.99c.503-.696 1.074-1.484 1.214-2.398.065-.45.021-.908-.128-1.338 1.572.377 4 1.387 4.731 3.8a.89.89 0 00.009.026c.408 1.202.248 2.415-.436 3.328a3.127 3.127 0 01-2.673 1.249c-1.68-.072-2.88-.605-3.381-1.503-.37-.664-.344-1.534.075-2.283.178-.306.375-.6.59-.882z" fill="#02A68F"/></svg>