<svg width="76" height="76" fill="none" xmlns="http://www.w3.org/2000/svg"><path d="M37.7 23.725a8.4 8.4 0 00-8.391 8.39v3.751a8.391 8.391 0 0016.781 0v-3.75a8.4 8.4 0 00-8.39-8.39zm6.609 12.141a6.609 6.609 0 01-13.22 0v-3.75a6.61 6.61 0 0113.22 0v3.75zm-20.532 31.83h27.847a.89.89 0 00.891-.89v-2.86h19.312a.89.89 0 00.89-.89v-7.387a8.284 8.284 0 00-7.758-8.262c-.475-.035-.712.254-.962.559a5.47 5.47 0 01-8.63-.211.892.892 0 00-.738-.361 8.188 8.188 0 00-4.245 1.297 9.314 9.314 0 00-6.635-3.388c-.466-.026-.688.249-.971.594a6.375 6.375 0 01-10.06-.246.899.899 0 00-.738-.361 9.279 9.279 0 00-6.977 3.412 8.224 8.224 0 00-3.95-1.295c-.476-.035-.712.254-.962.56a5.47 5.47 0 01-8.63-.212.894.894 0 00-.738-.361 8.279 8.279 0 00-8.069 8.275v7.386a.89.89 0 00.89.89h19.342v2.86a.89.89 0 00.89.89zm30.462-18.497a7.252 7.252 0 0011.026.025 6.504 6.504 0 015.67 6.445v6.495h-18.42v-7.548a9.28 9.28 0 00-1.135-4.448 6.404 6.404 0 012.86-.969zm-22.651-2.106a8.156 8.156 0 0012.49.027 7.558 7.558 0 016.656 7.496v11.298H24.667V54.616a7.551 7.551 0 016.92-7.523zM4.436 62.164V55.67a6.499 6.499 0 015.898-6.47 7.25 7.25 0 0011.026.025c.942.12 1.846.446 2.648.955a9.285 9.285 0 00-1.122 4.437v7.548H4.436z" fill="#02A68F"/><path d="M66.634 39.238v-3.282a7.457 7.457 0 00-10.309-6.889 7.458 7.458 0 00-4.602 6.889v3.282a7.456 7.456 0 0014.91 0zm-13.13 0v-3.282a5.674 5.674 0 1111.349 0v3.282a5.68 5.68 0 01-5.675 5.674 5.681 5.681 0 01-5.674-5.674zm-30.315.018v-3.282a7.455 7.455 0 10-14.912 0v3.282a7.456 7.456 0 0014.912 0zm-13.13 0v-3.282a5.674 5.674 0 1111.348 0v3.282a5.68 5.68 0 01-5.674 5.675 5.68 5.68 0 01-5.674-5.675z" fill="#02A68F"/><path d="M73.94 22.5v-9.277a3.44 3.44 0 00-3.434-3.434H47.185a3.439 3.439 0 00-3.435 3.434v9.278a3.438 3.438 0 003.435 3.435l1.034.002c.599 3.323 2.783 4.393 3.34 4.615a.9.9 0 001.028-.146.926.926 0 00.273-.466c.063-.27.102-.546.119-.822.193-2.065.633-3.184 2.406-3.184h15.12A3.438 3.438 0 0073.94 22.5zm-1.781 0a1.656 1.656 0 01-1.653 1.654H55.384c-3.19 0-3.89 2.549-4.103 4.108-.507-.49-1.075-1.316-1.313-2.663a1.762 1.762 0 00-1.748-1.445h-1.035a1.656 1.656 0 01-1.654-1.653v-9.278a1.656 1.656 0 011.654-1.653h23.32a1.655 1.655 0 011.654 1.653v9.278zM28.816 8.304H5.496A3.439 3.439 0 002.06 11.74V22.5a3.439 3.439 0 003.434 3.434l15.285.003c.598 3.322 2.782 4.393 3.34 4.614a.899.899 0 001.028-.144.927.927 0 00.273-.466c.093-.333.066-.727.032-1.225-.055-.795-.129-1.884.348-2.394.24-.257.662-.388 1.253-.388h1.763A3.438 3.438 0 0032.25 22.5V11.739a3.438 3.438 0 00-3.435-3.435zm1.654 14.197a1.656 1.656 0 01-1.654 1.653h-1.762c-1.105 0-1.965.321-2.556.954-.778.833-.888 1.979-.864 2.945-.446-.504-.898-1.28-1.105-2.454a1.763 1.763 0 00-1.749-1.445H5.495a1.656 1.656 0 01-1.653-1.653V11.739a1.655 1.655 0 011.653-1.654h23.321a1.656 1.656 0 011.654 1.654V22.5z" fill="#02A68F"/></svg>