<svg width="72" height="72" fill="none" xmlns="http://www.w3.org/2000/svg"><path d="M39.807 6.197a.844.844 0 00.596-1.44L36.597.95a.844.844 0 00-1.194 0l-3.806 3.807A.844.844 0 1032.79 5.95l2.232-2.232v7.115a.844.844 0 001.687 0V3.566a.826.826 0 00-.01-.127L39.21 5.95a.842.842 0 00.597.247zm-8.21 59.853a.845.845 0 000 1.193l3.806 3.807a.844.844 0 001.194 0l3.806-3.807a.844.844 0 10-1.193-1.193l-2.232 2.232v-7.115a.843.843 0 10-1.687 0v7.267a.84.84 0 00.01.127L32.79 66.05a.844.844 0 00-1.193 0zM5.353 40.65a.844.844 0 00.597-1.44l-2.232-2.232h7.115a.844.844 0 100-1.687H3.566a.838.838 0 00-.127.01l2.511-2.51a.844.844 0 00-1.193-1.194L.95 35.403a.844.844 0 000 1.194l3.807 3.806a.84.84 0 00.596.247zm65.697-5.247l-3.806-3.806a.845.845 0 00-1.193 1.193l2.232 2.232h-7.115a.844.844 0 000 1.687h7.268a.837.837 0 00.126-.01l-2.511 2.51a.843.843 0 101.193 1.194l3.806-3.806a.842.842 0 000-1.194zM17.866 11.638a.844.844 0 00-.844-.844h-5.383a.844.844 0 00-.844.844v5.383a.844.844 0 101.687 0v-3.155l5.031 5.03a.844.844 0 001.193-1.193l-5.138-5.139a.837.837 0 00-.101-.082h3.555a.844.844 0 00.844-.844zm36.27 48.724a.844.844 0 00.844.844h5.383a.844.844 0 00.844-.844v-5.383a.844.844 0 00-1.688 0v3.155l-5.03-5.03a.844.844 0 00-1.194 1.193l5.139 5.139c.031.03.065.057.1.082H54.98a.844.844 0 00-.844.844zm7.07-43.341v-5.383a.844.844 0 00-.844-.844H54.98a.844.844 0 100 1.688h3.156l-5.031 5.03a.845.845 0 101.193 1.194l5.139-5.14a.845.845 0 00.082-.1v3.555a.844.844 0 101.688 0zM18.897 53.294a.844.844 0 00-1.193 0l-5.14 5.14a.837.837 0 00-.082.1v-3.555a.844.844 0 10-1.687 0v5.383a.844.844 0 00.844.844h5.383a.844.844 0 000-1.688h-3.156l5.031-5.03a.843.843 0 000-1.194zm30.635-3.554a.844.844 0 00.844-.843v-9.415h.133a6.021 6.021 0 100-12.044h-.133V18.51a.843.843 0 00-1.157-.784l-19.39 7.756H20.22a4.758 4.758 0 00-4.752 4.752v6.938a4.757 4.757 0 002.712 4.29l2.603 9.45a4.658 4.658 0 008.983-2.476l-1.795-6.512h1.856l19.39 7.756c.1.04.207.06.314.06zm.977-20.615a4.334 4.334 0 110 8.67h-.133v-8.67h.133zM29.15 40.237h-1.44V27.17h1.439v13.066zm-11.993-3.064v-6.938a3.068 3.068 0 013.065-3.064h5.8v13.066h-5.8a3.068 3.068 0 01-3.065-3.064zm8.91 15.365a2.972 2.972 0 01-3.654-2.074l-2.355-8.544c.055.002.109.005.164.005h6l1.92 6.96a2.974 2.974 0 01-2.076 3.654zm22.622-4.887l-17.853-7.142V26.9l17.853-7.141V47.65z" fill="#02A68F"/></svg>