<svg width="70" height="70" fill="none" xmlns="http://www.w3.org/2000/svg"><g clip-path="url(#clip0)" fill="#02A68F"><path d="M44.765 45.674a.854.854 0 00-.23-.789l-6.19-6.19a6.3 6.3 0 00-8.8-8.8l-6.192-6.192a.853.853 0 00-1.406.312l-5.096 14.016a33.745 33.745 0 01-7.8 12.247 3.577 3.577 0 000 5.058l3.852 3.851a3.576 3.576 0 005.058 0l.071-.07 7.965 7.965a.853.853 0 001.207 0 6.3 6.3 0 000-8.91l-3.549-3.548a33.562 33.562 0 016.552-3.236l14.016-5.097a.854.854 0 00.542-.617zM33.244 30.402a4.593 4.593 0 013.871 7.064l-6.343-6.343a4.557 4.557 0 012.472-.721zM15.432 58.527a1.856 1.856 0 01-1.322-.547l-3.85-3.852a1.869 1.869 0 010-2.643 34.929 34.929 0 001.913-2.078l6.658 6.659a35.436 35.436 0 00-2.078 1.914 1.85 1.85 0 01-1.32.547zm10.565.853a4.596 4.596 0 01.548 5.836l-7.27-7.27a33.739 33.739 0 012.94-2.35l3.782 3.784zm3.627-9.597a35.442 35.442 0 00-9.455 5.205l-6.918-6.918a35.463 35.463 0 005.204-9.455l4.638-12.757L42.38 45.144l-12.756 4.64z"/><path d="M42.537 27.53a9.262 9.262 0 00-10.025-2.045.854.854 0 10.638 1.584 7.568 7.568 0 019.848 9.848.853.853 0 001.583.639 9.262 9.262 0 00-2.044-10.025z"/><path d="M47.625 39.615a.854.854 0 001.111-.473 13.686 13.686 0 00-17.81-17.81.854.854 0 00.638 1.583 11.98 11.98 0 0115.588 15.59.854.854 0 00.473 1.11zM57.141 0C50.04 0 44.283 5.757 44.283 12.858c0 7.102 5.757 12.858 12.858 12.858C64.243 25.716 70 19.96 70 12.858 69.992 5.76 64.24.008 57.14 0zm0 24.01c-6.158 0-11.15-4.993-11.15-11.152 0-6.158 4.992-11.15 11.15-11.15 6.159 0 11.151 4.992 11.151 11.15-.007 6.156-4.995 11.144-11.15 11.151z"/><path d="M61.76 11.365a3.192 3.192 0 10-3.191-3.206l-3.96 2.286a3.193 3.193 0 10-.08 4.895l4.057 2.543a3.195 3.195 0 10.339-1.803l-3.401-2.131a3.19 3.19 0 00.034-2.08l3.49-2.016a3.193 3.193 0 002.713 1.512zm0-4.677a1.485 1.485 0 110 2.97 1.485 1.485 0 010-2.97zm-9.237 7.655a1.485 1.485 0 11.001-2.97 1.485 1.485 0 01-.001 2.97zm9.238 1.716a1.485 1.485 0 110 2.97 1.485 1.485 0 010-2.97zm-4.62 28.225c-7.101 0-12.858 5.756-12.858 12.858C44.283 64.243 50.04 70 57.141 70 64.243 70 70 64.243 70 57.142c-.008-7.099-5.76-12.85-12.859-12.858zm0 24.009c-6.158 0-11.15-4.993-11.15-11.151 0-6.159 4.992-11.151 11.15-11.151 6.159 0 11.151 4.992 11.151 11.15-.007 6.157-4.995 11.145-11.15 11.152z"/><path d="M62.42 56.416l-6.992-4.326a.854.854 0 00-1.303.726v8.65a.853.853 0 001.303.726l6.992-4.325a.853.853 0 000-1.452zm-6.588 3.519v-5.587l4.517 2.794-4.517 2.793zM12.858 25.716c7.102 0 12.858-5.756 12.858-12.858C25.716 5.757 19.96 0 12.858 0 5.757 0 0 5.757 0 12.858c.008 7.098 5.76 12.85 12.858 12.858zm0-24.009c6.159 0 11.151 4.993 11.151 11.151 0 6.159-4.992 11.151-11.15 11.151-6.16 0-11.152-4.992-11.152-11.15.008-6.156 4.996-11.144 11.151-11.152z"/><path d="M7.612 17.963h6.11a2.279 2.279 0 002.276-2.276v-.135l3.12 1.711a.853.853 0 001.264-.748V9.202a.854.854 0 00-1.265-.749l-3.12 1.713v-.137a2.279 2.279 0 00-2.276-2.276H7.612a2.28 2.28 0 00-2.276 2.276v5.658a2.28 2.28 0 002.276 2.277zm11.062-7.319v4.428l-2.676-1.468v-1.491l2.676-1.469zm-11.63-.615a.57.57 0 01.568-.569h6.11a.57.57 0 01.569.57v5.657a.57.57 0 01-.57.57H7.612a.57.57 0 01-.569-.57V10.03z"/></g><defs><clipPath id="clip0"><path fill="#fff" d="M0 0h70v70H0z"/></clipPath></defs></svg>