<svg width="72" height="72" fill="none" xmlns="http://www.w3.org/2000/svg"><path d="M30.367 10.055v1.797a5.476 5.476 0 1010.953 0v-1.797a5.476 5.476 0 10-10.953 0zm8.984 0v1.797a3.508 3.508 0 01-7.015 0v-1.797a3.512 3.512 0 013.507-3.507 3.512 3.512 0 013.508 3.507zm20.499 3.708a4.92 4.92 0 004.915-4.915V7.276a4.915 4.915 0 10-9.83 0v1.572a4.92 4.92 0 004.915 4.915zm-2.946-6.487a2.946 2.946 0 015.893 0v1.572a2.946 2.946 0 01-5.893 0V7.276z" fill="#02A68F"/><path d="M66.179 13.702c-.06-.006-.185-.018-3.638-.025h-.001a.985.985 0 00-.854.494l-1.676 2.92-1.58-2.902a.984.984 0 00-.865-.513H54.31a5.068 5.068 0 00-5.068 5.068l.021 10.053a3.156 3.156 0 003.152 3.151h.036c.418-.004.83-.094 1.212-.264l.16 6.43a.987.987 0 00.04.257l-3.148 3.148a.985.985 0 00-.26.935l.043.17a11.602 11.602 0 00-6.658-2.238h-.347a15.06 15.06 0 00-.432.012l.06-2.642a3.463 3.463 0 004.996-3.108V23.679a5.651 5.651 0 00-5.056-6.14c-.057-.006-.206-.021-4.144-.03h-.002a.985.985 0 00-.854.495l-2.04 3.555-1.926-3.536a.984.984 0 00-.864-.513h-3.72a5.659 5.659 0 00-5.652 5.65l.024 11.49a3.463 3.463 0 003.462 3.461h.04a3.373 3.373 0 001.508-.375l.27 14.718a.978.978 0 00.07.346 14.625 14.625 0 0014.374 16.839h.083c7.908 0 14.461-6.406 14.625-14.318l.003-.357a11.294 11.294 0 00-.6-3.589h5.926a2.196 2.196 0 002.199-2.06l.485-17.615a3.155 3.155 0 004.386-2.905v-9.592a5.074 5.074 0 00-4.535-5.5zM56.22 38.798l.206 2.086-3.467 3.468-.459-1.834 3.72-3.72zm-1.87 6.946l3.469-3.468 2.086.207-3.72 3.72-1.834-.459zm-23.53-10.21l-.013-.968a.985.985 0 00-.985-.969h-.007a.985.985 0 00-.977.984 1.535 1.535 0 01-1.493 1.563 1.493 1.493 0 01-1.494-1.495l-.024-11.487a3.687 3.687 0 013.684-3.683h3.135l2.489 4.569a.984.984 0 00.853.513H36a.985.985 0 00.854-.495l2.63-4.585c1.374.004 3.144.01 3.398.02a3.682 3.682 0 013.27 4.033.968.968 0 00-.004.099V34.65a1.496 1.496 0 01-2.99.056l-.002-.073a.984.984 0 10-1.968.017l.001.106.013.79-.116 5.074a14.694 14.694 0 00-10.043 7.066l-.222-12.153zM56.348 55.28c-.142 6.847-5.813 12.39-12.657 12.39h-.072a12.658 12.658 0 01.072-25.317h.13a9.71 9.71 0 016.74 2.906l.74.75-8.305 8.306a.984.984 0 001.392 1.392l8.298-8.298.839.85a9.566 9.566 0 012.825 6.71c0 .104 0 .208-.002.311zM68.75 19.056a.968.968 0 00-.005.1v9.639a1.185 1.185 0 01-2.37.046l-.002-.063a.985.985 0 00-.984-.968h-.008a.985.985 0 00-.977.985c0 .032 0 .064.002.096l.011.685-.541 19.637a.235.235 0 01-.232.193h-6.807c-.235-.418-.495-.82-.779-1.207l.191.048a.983.983 0 00.935-.259l5.585-5.585a.985.985 0 00-.6-1.675l-3.816-.378-.378-3.817a.984.984 0 00-1.676-.6l-.548.55-.171-6.917-.013-.846a.984.984 0 00-.984-.97h-.008a.985.985 0 00-.977.985 1.218 1.218 0 01-1.159 1.244h-.024a1.186 1.186 0 01-1.184-1.185l-.02-10.051a3.1 3.1 0 013.099-3.1h2.67l2.144 3.934a.984.984 0 001.718.018l2.266-3.95c1.182.004 2.661.01 2.894.017a3.103 3.103 0 012.748 3.395zM6.959 7.276v1.572a4.915 4.915 0 009.83 0V7.276a4.915 4.915 0 10-9.83 0zm7.86 0v1.572a2.946 2.946 0 01-5.891 0V7.276a2.946 2.946 0 015.892 0z" fill="#02A68F"/><path d="M18.202 13.702c-.06-.006-.185-.018-3.637-.025h-.002a.983.983 0 00-.854.494l-1.675 2.92-1.58-2.902a.985.985 0 00-.865-.513H6.334a5.074 5.074 0 00-5.068 5.068l.02 10.053A3.156 3.156 0 004.44 31.95h.036a3.071 3.071 0 001.222-.269l.521 17.639a2.197 2.197 0 002.198 2.056h7.252a2.197 2.197 0 002.198-2.06l.486-17.615a3.155 3.155 0 004.386-2.904v-9.593a5.068 5.068 0 00-4.536-5.5zm2.572 5.355a.94.94 0 00-.005.1v9.639a1.186 1.186 0 01-2.37.045l-.001-.062a.984.984 0 00-.985-.968h-.008a.984.984 0 00-.976.985l.001.095.011.685-.541 19.638a.235.235 0 01-.232.193H8.416a.235.235 0 01-.231-.193L7.604 29.56l-.013-.838a.984.984 0 00-.984-.97h-.008a.984.984 0 00-.977.985 1.218 1.218 0 01-1.159 1.244H4.44a1.186 1.186 0 01-1.184-1.186l-.02-10.05a3.103 3.103 0 013.099-3.1h2.67l2.144 3.933a.984.984 0 001.718.02l2.266-3.95c1.182.002 2.662.008 2.894.016a3.1 3.1 0 012.748 3.393zm30.624 30.598a.984.984 0 00-.388 1.337 8.347 8.347 0 11-3.177-3.231.985.985 0 00.979-1.709 10.313 10.313 0 103.923 3.99.984.984 0 00-1.337-.387z" fill="#02A68F"/><path d="M43.69 51.183a3.829 3.829 0 103.829 3.83.984.984 0 10-1.969 0 1.86 1.86 0 11-1.86-1.86.984.984 0 100-1.97z" fill="#02A68F"/></svg>