<svg width="72" height="72" fill="none" xmlns="http://www.w3.org/2000/svg"><g clip-path="url(#clip0)" fill="#02A68F"><path d="M26.164 48.22v15.992H14.036a5.065 5.065 0 00-5.058 5.058c0 .506.41.915.916.915H39a17.767 17.767 0 105.93-33.62 19.163 19.163 0 001.602-7.775.915.915 0 10-1.831 0c0 2.949-.692 5.763-2 8.157a17.925 17.925 0 00-11.597 8.993 18.61 18.61 0 01-4.025.474c-9.73-.012-17.613-7.896-17.623-17.624a.915.915 0 10-1.831 0c0 10.42 8.235 18.952 18.539 19.43zm1.83-.003a19.875 19.875 0 002.191-.237 17.77 17.77 0 001.942 16.232h-4.133V48.217zM10.941 68.355a3.234 3.234 0 013.096-2.312h19.52c.756.848 1.59 1.622 2.493 2.312H10.941zm32.554-29.712a15.94 15.94 0 11-12.61 15.59 15.775 15.775 0 011.653-7.08l.01-.019a16.065 16.065 0 0110.946-8.49h.001z"/><path d="M26.859 40.298h.44c6.232-.007 11.282-5.057 11.29-11.289V11.29C38.58 5.057 33.53.007 27.298 0h-.44c-6.23.007-11.281 5.057-11.288 11.289v17.72c.008 6.232 5.058 11.282 11.289 11.289zM17.4 28.218h4.647a.916.916 0 000-1.83H17.4V24.51h4.647a.916.916 0 000-1.831H17.4v-1.876h4.647a.915.915 0 100-1.831H17.4v-1.878h4.647a.916.916 0 000-1.83H17.4v-3.976a9.469 9.469 0 019.458-9.458h.44a9.469 9.469 0 019.459 9.458v3.976H32.11a.915.915 0 100 1.83h4.647v1.877H32.11a.916.916 0 000 1.831h4.647v1.876H32.11a.915.915 0 100 1.831h4.647v1.877H32.11a.916.916 0 000 1.83h4.647v.792a9.469 9.469 0 01-9.458 9.458h-.441a9.468 9.468 0 01-9.458-9.458v-.79zm20.27 26.931h8.237v8.237a.915.915 0 101.83 0V55.15h8.238a.915.915 0 100-1.83h-8.238v-8.24a.916.916 0 00-1.83 0v8.237h-8.238a.916.916 0 000 1.83z"/></g><defs><clipPath id="clip0"><path fill="#fff" d="M0 0h72v72H0z"/></clipPath></defs></svg>